<svg width="137" height="128" viewBox="0 0 137 128" fill="none" xmlns="http://www.w3.org/2000/svg">
<path fill-rule="evenodd" clip-rule="evenodd" d="M37.2956 128C29.3142 128 22.844 121.53 22.844 113.548C22.844 105.567 29.3142 99.0968 37.2956 99.0968C45.277 99.0968 51.7472 105.567 51.7472 113.548C51.7472 121.53 45.277 128 37.2956 128ZM37.2956 123.871C42.9966 123.871 47.6181 119.249 47.6181 113.548C47.6181 107.847 42.9966 103.226 37.2956 103.226C31.5946 103.226 26.973 107.847 26.973 113.548C26.973 119.249 31.5946 123.871 37.2956 123.871ZM113.683 76.3871C105.701 76.3871 99.231 69.9169 99.231 61.9355C99.231 53.9541 105.701 47.4839 113.683 47.4839C121.664 47.4839 128.134 53.9541 128.134 61.9355C128.134 69.9169 121.664 76.3871 113.683 76.3871ZM121.941 43.3548C113.959 43.3548 107.489 36.8846 107.489 28.9032C107.489 20.9218 113.959 14.4516 121.941 14.4516C129.922 14.4516 136.392 20.9218 136.392 28.9032C136.392 36.8846 129.922 43.3548 121.941 43.3548ZM121.941 39.2258C127.642 39.2258 132.263 34.6042 132.263 28.9032C132.263 23.2022 127.642 18.5806 121.941 18.5806C116.24 18.5806 111.618 23.2022 111.618 28.9032C111.618 34.6042 116.24 39.2258 121.941 39.2258ZM57.9407 43.3548C49.9593 43.3548 43.4891 36.8846 43.4891 28.9032C43.4891 20.9218 49.9593 14.4516 57.9407 14.4516C65.9221 14.4516 72.3923 20.9218 72.3923 28.9032C72.3923 36.8846 65.9221 43.3548 57.9407 43.3548ZM24.9085 28.9032C16.9271 28.9032 10.4569 22.433 10.4569 14.4516C10.4569 6.47021 16.9271 0 24.9085 0C32.8899 0 39.3601 6.47021 39.3601 14.4516C39.3601 22.433 32.8899 28.9032 24.9085 28.9032ZM24.9085 24.7742C30.6095 24.7742 35.2311 20.1526 35.2311 14.4516C35.2311 8.75061 30.6095 4.12903 24.9085 4.12903C19.2075 4.12903 14.5859 8.75061 14.5859 14.4516C14.5859 20.1526 19.2075 24.7742 24.9085 24.7742ZM14.5859 101.161C6.60449 101.161 0.134277 94.6911 0.134277 86.7097C0.134277 78.7283 6.60449 72.2581 14.5859 72.2581C22.5673 72.2581 29.0375 78.7283 29.0375 86.7097C29.0375 94.6911 22.5673 101.161 14.5859 101.161Z" fill="currentColor"/>
</svg>
