<svg width="129" height="128" viewBox="0 0 129 128" fill="none" xmlns="http://www.w3.org/2000/svg">
<path d="M76.5056 64.3982C76.5056 55.125 71.5452 47.0125 64.1348 42.5624C56.7239 47.0119 51.7635 55.1244 51.7635 64.3982C51.7635 73.6719 56.7239 81.7844 64.1348 86.2339C71.5447 81.7844 76.5056 73.6719 76.5056 64.3982ZM64.1343 0C28.7883 0 0.134277 28.6535 0.134277 64C0.134277 99.3465 28.7883 128 64.1343 128C99.4802 128 128.134 99.3465 128.134 64C128.134 28.6535 99.4808 0 64.1343 0ZM77.217 89.8522C72.4325 89.8522 67.9579 88.5297 64.1348 86.2339C60.3112 88.5297 55.8372 89.8522 51.0521 89.8522C36.9945 89.8522 25.5987 78.4564 25.5987 64.3987C25.5987 50.341 36.9945 38.9452 51.0521 38.9452C55.8366 38.9452 60.3112 40.2677 64.1348 42.5635C67.9579 40.2677 72.4325 38.9452 77.217 38.9452C91.2752 38.9452 102.67 50.341 102.67 64.3987C102.67 78.4564 91.2746 89.8522 77.217 89.8522Z" fill="currentColor"/>
</svg>
