<svg width="136" height="128" viewBox="0 0 136 128" xmlns="http://www.w3.org/2000/svg">
<path d="M84.1083 0L78.1265 22.3238C79.2581 22.6283 80.4184 22.7682 81.5584 22.7222C82.3697 22.0465 83.3313 21.5752 84.3625 21.3479C85.3936 21.1206 86.4643 21.1438 87.4846 21.4157C89.1762 21.869 90.6184 22.9757 91.494 24.4924C92.3696 26.009 92.607 27.8113 92.1538 29.5029C91.7005 31.1945 90.5938 32.6367 89.0772 33.5123C87.5606 34.388 85.7583 34.6254 84.0668 34.1722C83.0456 33.8977 82.1053 33.382 81.325 32.6685C80.5446 31.955 79.947 31.0645 79.5825 30.0719C78.6205 29.4641 77.5462 29.0075 76.4167 28.7041L70.4354 51.028L92.7581 57.0078C92.4554 58.1407 91.9979 59.2163 91.3884 60.1796C90.397 60.5441 89.5076 61.1412 88.7948 61.9206C88.0819 62.7 87.5665 63.639 87.2916 64.6589C87.0671 65.4965 87.0097 66.3702 87.1228 67.23C87.2359 68.0898 87.5173 68.9189 87.9508 69.67C88.3844 70.4211 88.9616 71.0794 89.6496 71.6074C90.3376 72.1353 91.1228 72.5226 91.9605 72.7471C92.7982 72.9715 93.6718 73.0286 94.5316 72.9154C95.3913 72.8021 96.2204 72.5206 96.9713 72.0869C97.7223 71.6532 98.3805 71.0759 98.9083 70.3878C99.4361 69.6998 99.8233 68.9145 100.048 68.0768C100.321 67.0552 100.344 65.9831 100.117 64.9504C99.889 63.9178 99.4167 62.955 98.7395 62.1429C98.6976 61.007 98.8334 59.8486 99.1382 58.7178L121.461 64.6997L135.134 13.6728L84.1083 0ZM52.8273 22.3433H0V74.4806H22.3232C22.2711 73.646 22.1984 72.8094 21.9637 72.0341C20.2164 70.6581 19.1227 68.6029 19.1227 66.3658C19.1227 62.3462 22.395 59.0733 26.4135 59.0733C30.4324 59.0733 33.7057 62.3462 33.7057 66.3658C33.7057 68.5998 32.6094 70.6489 30.8663 72.0239C30.6295 72.8022 30.557 73.6409 30.5062 74.4785H52.8273V52.0577C53.9989 52.0577 55.1562 52.2201 56.2446 52.5592C56.8532 53.4226 57.66 54.1274 58.5974 54.6144C59.5348 55.1014 60.5753 55.3565 61.6317 55.3581C62.4989 55.3581 63.3576 55.1873 64.1587 54.8553C64.9599 54.5234 65.6879 54.037 66.301 53.4237C66.9142 52.8105 67.4006 52.0825 67.7324 51.2813C68.0642 50.4801 68.2349 49.6213 68.2348 48.7541C68.2347 47.0029 67.539 45.3234 66.3007 44.0852C65.0624 42.8469 63.3829 42.1512 61.6317 42.1512C60.5744 42.1519 59.5327 42.4065 58.5942 42.8935C57.6558 43.3806 56.848 44.0859 56.2389 44.9501C55.1524 45.2882 53.997 45.4516 52.8273 45.4526V22.3433ZM26.4135 59.7638C25.5463 59.7639 24.6877 59.9347 23.8865 60.2666C23.0853 60.5985 22.3574 61.085 21.7442 61.6983C21.1311 62.3115 20.6447 63.0395 20.3129 63.8407C19.9811 64.6419 19.8104 65.5006 19.8105 66.3678C19.8114 67.4252 20.0662 68.4669 20.5535 69.4053C21.0409 70.3437 21.7464 71.1514 22.6108 71.7603C22.9475 72.8462 23.1107 74.0025 23.1119 75.1711H0V127.998H52.1395V105.677C51.3032 105.728 50.4662 105.802 49.6902 106.036C48.3138 107.781 46.2608 108.878 44.0235 108.878C40.0046 108.878 36.7313 105.604 36.7313 101.586C36.7313 97.5665 40.0046 94.2936 44.0235 94.2936C46.2589 94.2936 48.3103 95.3886 49.6854 97.1344C50.4646 97.3703 51.3014 97.4408 52.1395 97.4929V75.1721H29.7165C29.7165 74.0015 29.88 72.8441 30.2191 71.7552C31.0822 71.1465 31.7867 70.3397 32.2735 69.4025C32.7602 68.4653 33.0151 67.425 33.0167 66.3689C33.0168 65.5016 32.8461 64.6429 32.5143 63.8417C32.1825 63.0405 31.6961 62.3125 31.0829 61.6992C30.4698 61.086 29.7418 60.5995 28.9406 60.2676C28.1394 59.9357 27.2807 59.7649 26.4135 59.7649V59.7638ZM52.8262 75.1721V98.2836C51.6554 98.2836 50.4981 98.1201 49.4092 97.781C48.8007 96.9176 47.9938 96.2128 47.0565 95.7258C46.1192 95.2388 45.0787 94.9837 44.0225 94.9821C43.1552 94.9821 42.2965 95.1529 41.4953 95.4848C40.6942 95.8167 39.9662 96.3032 39.353 96.9164C38.7398 97.5297 38.2534 98.2577 37.9216 99.0589C37.5898 99.8601 37.4191 100.719 37.4192 101.586C37.4193 103.337 38.115 105.017 39.3534 106.255C40.5917 107.493 42.2712 108.189 44.0225 108.189C45.0799 108.188 46.1217 107.934 47.0603 107.446C47.9988 106.959 48.8066 106.254 49.4157 105.389C50.5013 105.052 51.6573 104.889 52.8262 104.888V128H105.654V75.1721H82.5427C82.5427 76.3438 82.7067 77.5012 83.0448 78.5901C83.9083 79.1987 84.613 80.0056 85.1 80.9431C85.587 81.8805 85.842 82.9211 85.8436 83.9775C85.8434 85.7288 85.1477 87.4083 83.9092 88.6466C82.6708 89.8849 80.9913 90.5805 79.24 90.5804C77.4887 90.5804 75.8093 89.8847 74.5709 88.6464C73.3326 87.4081 72.6369 85.7287 72.6368 83.9775C72.6374 82.92 72.892 81.8782 73.3791 80.9396C73.8662 80.001 74.5716 79.1932 75.4359 78.5839C75.774 77.4971 75.9376 76.3417 75.9387 75.1721H52.8262Z" fill="currentColor"/>
</svg>
