<svg width="129" height="128" viewBox="0 0 129 128" fill="none" xmlns="http://www.w3.org/2000/svg">
<path d="M64.961 0C29.6164 0 0.963135 28.6554 0.963135 63.9987C0.963135 99.3421 29.6164 128 64.961 128C100.306 128 128.962 99.3438 128.962 63.9987C128.962 28.6537 100.306 0 64.961 0ZM95.6823 57.0018L53.6262 99.0549L53.6283 99.0571C53.6138 99.0716 53.5997 99.0814 53.5852 99.0959L53.3275 99.3536L53.3143 99.3391C50.9416 101.549 47.8675 102.651 44.6849 102.651C40.8893 102.651 36.952 101.103 33.9056 98.0565C31.1967 95.3498 29.5724 91.8528 29.3322 88.2099C29.0941 84.6067 30.235 81.2826 32.5258 78.7661L32.5028 78.743L74.0644 37.1814C77.5745 33.6704 83.5402 33.929 87.3665 37.7545C89.1603 39.5482 90.2393 41.8743 90.3997 44.3021C90.57 46.8604 89.6714 49.3218 87.9353 51.0558L54.1023 84.8922L49.4069 80.198L83.242 46.3603C83.7377 45.8645 83.8052 45.207 83.7744 44.7445C83.7203 43.9347 83.3175 43.098 82.6702 42.4503C81.4542 41.2343 79.6627 40.9732 78.7585 41.8782L37.6044 83.0315L37.6057 83.0327C36.4183 84.2189 35.8329 85.9021 35.9571 87.7722C36.0919 89.8074 37.0305 91.7926 38.6007 93.3628C41.7179 96.4791 46.3404 96.9314 48.9175 94.3765L90.9902 52.3072C92.9499 50.3462 93.9193 47.59 93.7179 44.5478C93.5054 41.3397 92.036 38.2225 89.5827 35.7692C84.6337 30.8215 77.2166 30.1897 73.0446 34.3595L38.2376 69.1652L33.5421 64.471L68.3492 29.664C75.1084 22.906 86.7398 23.5366 94.2768 31.0729C97.8698 34.6637 100.023 39.2926 100.343 44.1075C100.672 49.0876 99.0175 53.6666 95.6823 57.0018Z" fill="currentColor"/>
</svg>
