<svg width="99" height="128" viewBox="0 0 99 128" fill="none" xmlns="http://www.w3.org/2000/svg">
<path fill-rule="evenodd" clip-rule="evenodd" d="M3.6248 22.2298H23.1922V2.66089L3.6248 22.2374V22.2298ZM26.9569 0H98.4863V128H0.962402V25.9945H25.0746C25.3218 25.9945 25.5666 25.9459 25.7949 25.8513C26.0233 25.7567 26.2308 25.618 26.4056 25.4432C26.5804 25.2684 26.7191 25.0609 26.8137 24.8325C26.9083 24.6042 26.9569 24.3594 26.9569 24.1122V0ZM72.9526 53.0552L72.1801 55.939C72.1163 56.1775 72.1001 56.4262 72.1325 56.671C72.1648 56.9157 72.2451 57.1517 72.3686 57.3654C72.4922 57.5792 72.6566 57.7665 72.8525 57.9167C73.0485 58.0669 73.272 58.177 73.5105 58.2408C73.749 58.3045 73.9977 58.3207 74.2425 58.2884C74.4872 58.256 74.7232 58.1758 74.937 58.0522C75.3686 57.8027 75.6835 57.392 75.8123 56.9103L77.7579 49.6459C77.8218 49.4074 77.8381 49.1587 77.8058 48.9139C77.7734 48.6691 77.6932 48.4331 77.5695 48.2193C77.4459 48.0056 77.2813 47.8184 77.0852 47.6683C76.8891 47.5183 76.6653 47.4084 76.4267 47.3449L69.1638 45.3978C68.6822 45.269 68.1691 45.3368 67.7374 45.5864C67.5237 45.7099 67.3364 45.8743 67.1862 46.0703C67.036 46.2662 66.9258 46.4898 66.8621 46.7283C66.7983 46.9668 66.7821 47.2155 66.8145 47.4602C66.8468 47.705 66.927 47.941 67.0506 48.1547C67.3001 48.5864 67.7109 48.9012 68.1925 49.03L71.0748 49.8025L17.2681 80.8659C17.0545 80.9898 16.8674 81.1545 16.7175 81.3507C16.5676 81.5469 16.4578 81.7707 16.3944 82.0093C16.331 82.248 16.3152 82.4967 16.3479 82.7415C16.3807 82.9862 16.4613 83.2221 16.5852 83.4357C16.7091 83.6493 16.8738 83.8363 17.07 83.9862C17.2662 84.1361 17.49 84.2459 17.7286 84.3094C17.9673 84.3728 18.216 84.3886 18.4608 84.3558C18.7055 84.3231 18.9414 84.2425 19.155 84.1186L72.9526 53.0552ZM79.3707 112.157C79.8699 112.157 80.3487 111.958 80.7017 111.605C81.0547 111.252 81.253 110.773 81.253 110.274V61.9189C81.2532 61.6716 81.2047 61.4268 81.1102 61.1983C81.0156 60.9698 80.877 60.7622 80.7021 60.5874C80.5273 60.4126 80.3197 60.2739 80.0913 60.1794C79.8628 60.0849 79.6179 60.0363 79.3707 60.0365H68.4696C68.2224 60.0363 67.9775 60.0849 67.749 60.1794C67.5206 60.2739 67.313 60.4126 67.1381 60.5874C66.9633 60.7622 66.8247 60.9698 66.7301 61.1983C66.6356 61.4268 66.5871 61.6716 66.5872 61.9189V110.274C66.5872 110.773 66.7856 111.252 67.1386 111.605C67.4916 111.958 67.9704 112.157 68.4696 112.157H79.3707ZM70.352 108.392H77.4883V63.8012H70.355V108.392H70.352ZM62.1389 112.157C62.6381 112.157 63.1169 111.958 63.4699 111.605C63.8229 111.252 64.0212 110.773 64.0212 110.274V71.2373C64.0212 70.738 63.8229 70.2593 63.4699 69.9062C63.1169 69.5532 62.6381 69.3549 62.1389 69.3549H51.2378C50.7386 69.3549 50.2598 69.5532 49.9068 69.9062C49.5538 70.2593 49.3554 70.738 49.3554 71.2373V110.274C49.3554 110.773 49.5538 111.252 49.9068 111.605C50.2598 111.958 50.7386 112.157 51.2378 112.157H62.1389ZM53.1201 108.392H60.2565V73.1196H53.1201V108.392ZM44.9071 112.157C45.4063 112.157 45.8851 111.958 46.2381 111.605C46.5911 111.252 46.7894 110.773 46.7894 110.274V79.1507C46.7894 78.6515 46.5911 78.1727 46.2381 77.8197C45.8851 77.4666 45.4063 77.2683 44.9071 77.2683H34.006C33.7587 77.2681 33.5139 77.3167 33.2854 77.4112C33.0569 77.5057 32.8493 77.6444 32.6745 77.8192C32.4997 77.994 32.361 78.2016 32.2665 78.4301C32.172 78.6586 32.1234 78.9034 32.1236 79.1507V110.274C32.1236 110.773 32.3219 111.252 32.675 111.605C33.028 111.958 33.5067 112.157 34.006 112.157H44.9071ZM35.8883 108.392H43.0247V81.033H35.8883V108.392ZM27.6753 112.157C28.1745 112.157 28.6533 111.958 29.0063 111.605C29.3593 111.252 29.5576 110.773 29.5576 110.274V88.2884C29.5576 87.7891 29.3593 87.3104 29.0063 86.9574C28.6533 86.6043 28.1745 86.406 27.6753 86.406H16.7727C16.2734 86.406 15.7946 86.6043 15.4416 86.9574C15.0886 87.3104 14.8903 87.7891 14.8903 88.2884V110.274C14.8903 110.773 15.0886 111.252 15.4416 111.605C15.7946 111.958 16.2734 112.157 16.7727 112.157H27.6753ZM18.655 108.392H25.7929V90.1707H18.655V108.392ZM90.0609 115.424H11.2702V44.1585C11.2702 43.6593 11.0718 43.1805 10.7188 42.8275C10.3658 42.4745 9.88705 42.2761 9.38782 42.2761C8.88858 42.2761 8.4098 42.4745 8.05679 42.8275C7.70378 43.1805 7.50546 43.6593 7.50546 44.1585V117.308C7.50546 117.807 7.70378 118.286 8.05679 118.639C8.4098 118.992 8.88858 119.191 9.38782 119.191H90.0609C90.5602 119.191 91.039 118.992 91.392 118.639C91.745 118.286 91.9433 117.807 91.9433 117.308C91.9433 116.809 91.745 116.33 91.392 115.977C91.039 115.624 90.5602 115.424 90.0609 115.424ZM43.0413 26.6662H83.8266C84.3258 26.6662 84.8046 26.4678 85.1576 26.1148C85.5106 25.7618 85.7089 25.283 85.7089 24.7838C85.7089 24.2846 85.5106 23.8058 85.1576 23.4528C84.8046 23.0998 84.3258 22.9015 83.8266 22.9015H43.0413C42.542 22.9015 42.0633 23.0998 41.7102 23.4528C41.3572 23.8058 41.1589 24.2846 41.1589 24.7838C41.1589 25.283 41.3572 25.7618 41.7102 26.1148C42.0633 26.4678 42.542 26.6662 43.0413 26.6662ZM65.4503 14.9579H83.8221C84.3213 14.9579 84.8001 14.7596 85.1531 14.4066C85.5061 14.0536 85.7044 13.5748 85.7044 13.0756C85.7044 12.5763 85.5061 12.0976 85.1531 11.7446C84.8001 11.3915 84.3213 11.1932 83.8221 11.1932H65.4503C64.9511 11.1932 64.4723 11.3915 64.1193 11.7446C63.7663 12.0976 63.568 12.5763 63.568 13.0756C63.568 13.5748 63.7663 14.0536 64.1193 14.4066C64.4723 14.7596 64.9511 14.9579 65.4503 14.9579Z" fill="currentColor"/>
</svg>
