<svg width="129" height="129" viewBox="0 0 129 129" fill="none" xmlns="http://www.w3.org/2000/svg">
<path d="M80.3654 15.9197C80.3654 17.9996 79.9556 20.0592 79.1596 21.9809C78.3637 23.9025 77.197 25.6483 75.7263 27.1191C74.2555 28.5898 72.5095 29.7567 70.5879 30.5526C68.6662 31.3486 66.6068 31.7582 64.5268 31.7582C62.4469 31.7582 60.3872 31.3486 58.4656 30.5526C56.544 29.7567 54.7981 28.5898 53.3274 27.1191C51.8566 25.6484 50.6899 23.9025 49.894 21.9809C49.098 20.0593 48.6884 17.9996 48.6884 15.9197C48.6885 11.7191 50.3571 7.69047 53.3274 4.7202C56.2976 1.74994 60.3262 0.0814472 64.5268 0.0814209C66.6067 0.0814073 68.6663 0.491027 70.5879 1.28697C72.5095 2.08292 74.2555 3.24948 75.7263 4.7202C77.197 6.19093 78.3637 7.93683 79.1596 9.85843C79.9556 11.78 80.3653 13.8397 80.3654 15.9197Z" fill="currentColor"/>
<path d="M3.26355 96.3275H28.5299C30.3046 96.3275 31.7353 97.7568 31.7353 99.5327V124.799C31.7353 126.574 30.3058 128.004 28.5299 128.004H3.26355C1.48685 128.004 0.0583496 126.575 0.0583496 124.799V99.5327C0.0583496 97.758 1.48787 96.3275 3.26355 96.3275Z" fill="currentColor"/>
<path d="M51.6923 128.081H77.3605C77.8516 128.081 78.3345 127.956 78.7632 127.716C79.1918 127.477 79.552 127.131 79.8095 126.713C80.0669 126.295 80.2129 125.818 80.2336 125.327C80.2543 124.836 80.149 124.349 79.9278 123.91L66.6311 97.556C66.4346 97.1664 66.1338 96.8388 65.7622 96.6101C65.3906 96.3813 64.9628 96.2603 64.5264 96.2603C64.0901 96.2603 63.6624 96.3813 63.2908 96.6101C62.9192 96.8388 62.6184 97.1664 62.4219 97.556L49.1249 123.91C48.9037 124.349 48.7984 124.836 48.8191 125.327C48.8398 125.818 48.986 126.295 49.2434 126.713C49.5008 127.131 49.8609 127.477 50.2896 127.716C50.7182 127.956 51.2013 128.081 51.6923 128.081Z" fill="currentColor"/>
<path d="M128.995 112.166C128.995 114.246 128.585 116.306 127.789 118.227C126.993 120.149 125.826 121.895 124.356 123.365C122.885 124.836 121.139 126.003 119.217 126.799C117.296 127.595 115.236 128.005 113.156 128.005C111.076 128.005 109.017 127.595 107.095 126.799C105.174 126.003 103.428 124.836 101.957 123.365C100.486 121.895 99.3194 120.149 98.5234 118.227C97.7275 116.306 97.3177 114.246 97.3177 112.166C97.3177 110.086 97.7275 108.026 98.5234 106.105C99.3194 104.183 100.486 102.437 101.957 100.967C103.428 99.4959 105.174 98.3293 107.095 97.5334C109.017 96.7374 111.076 96.3275 113.156 96.3275C117.357 96.3275 121.385 97.9963 124.356 100.967C127.326 103.937 128.995 107.965 128.995 112.166Z" fill="currentColor"/>
<path d="M64.5348 41.9015C63.8257 41.8987 63.123 42.0363 62.4674 42.3064C61.8118 42.5765 61.2161 42.9737 60.7147 43.4751C60.2133 43.9765 59.8162 44.5722 59.5462 45.2278C59.2761 45.8835 59.1384 46.5859 59.1412 47.295V80.727C59.1437 81.4327 59.2851 82.131 59.5575 82.7821C59.8299 83.4331 60.2279 84.024 60.7288 84.5211C61.2297 85.0183 61.8235 85.412 62.4766 85.6796C63.1296 85.9472 63.829 86.0836 64.5348 86.0808C65.9532 86.0759 67.312 85.5102 68.315 84.5072C69.318 83.5042 69.8836 82.1454 69.8885 80.727V47.295C69.8913 46.5893 69.7551 45.8898 69.4876 45.2368C69.22 44.5837 68.8263 43.9899 68.3291 43.489C67.8319 42.9882 67.2409 42.59 66.5899 42.3176C65.9388 42.0452 65.2405 41.9039 64.5348 41.9015Z" fill="currentColor"/>
<path d="M20.2762 60.1442C14.962 60.1445 10.5201 64.5862 10.5201 69.9002V80.7269C10.5225 81.4326 10.6641 82.131 10.9365 82.782C11.2089 83.4331 11.6068 84.0239 12.1077 84.5211C12.6085 85.0183 13.2024 85.412 13.8554 85.6796C14.5084 85.9471 15.2079 86.0836 15.9136 86.0808C17.332 86.0759 18.6909 85.5101 19.6939 84.5072C20.6968 83.5042 21.2626 82.1453 21.2675 80.7269V70.8917H107.802V80.7269C107.807 82.1453 108.372 83.5042 109.375 84.5072C110.378 85.5101 111.737 86.0759 113.156 86.0808C114.574 86.076 115.933 85.5101 116.936 84.5072C117.939 83.5042 118.505 82.1454 118.51 80.7269V69.9002C118.51 64.5862 114.107 60.1445 108.793 60.1442H20.2762Z" fill="currentColor"/>
</svg>
