<svg width="162" height="128" viewBox="0 0 162 128" fill="none" xmlns="http://www.w3.org/2000/svg">
<path fill-rule="evenodd" clip-rule="evenodd" d="M149.793 100.93V0C137.379 0.105093 125.02 1.66624 112.969 4.65144C102.526 7.11795 92.5552 11.271 83.4487 16.947V117.072C92.3234 111.946 101.889 108.124 111.853 105.723C124.268 102.646 137.002 101.037 149.793 100.93ZM93.5469 24.1943C100.468 21.226 107.647 18.9009 114.995 17.2486C122.988 15.4315 131.11 14.2311 139.288 13.6581C139.888 13.6157 140.48 13.8134 140.934 14.2077C141.388 14.6019 141.667 15.1604 141.709 15.7603C141.752 16.3603 141.554 16.9524 141.16 17.4066C140.766 17.8608 140.207 18.1397 139.607 18.1821C131.662 18.7376 123.772 19.9025 116.005 21.6666C108.933 23.2556 102.023 25.4911 95.3601 28.3449C95.0875 28.4637 94.7943 28.5277 94.497 28.5332C94.1998 28.5387 93.9043 28.4855 93.6276 28.3769C93.3509 28.2682 93.0983 28.106 92.8842 27.8997C92.6701 27.6934 92.4988 27.4469 92.38 27.1744C92.2612 26.9019 92.1972 26.6086 92.1917 26.3114C92.1862 26.0141 92.2393 25.7187 92.348 25.442C92.4567 25.1652 92.6189 24.9126 92.8252 24.6986C93.0315 24.4845 93.2779 24.3132 93.5505 24.1943H93.5469ZM93.5469 41.9474C100.468 38.9796 107.647 36.6552 114.995 35.0034C122.988 33.1863 131.11 31.986 139.288 31.413C139.879 31.3854 140.458 31.5903 140.901 31.984C141.344 32.3777 141.615 32.9289 141.657 33.5199C141.698 34.1108 141.507 34.6946 141.124 35.1466C140.741 35.5986 140.197 35.8829 139.607 35.9387C131.662 36.4929 123.772 37.6567 116.005 39.4197C108.933 41.0084 102.022 43.2445 95.3601 46.0997C95.086 46.228 94.789 46.3001 94.4866 46.3116C94.1842 46.3232 93.8826 46.2741 93.5995 46.1672C93.3164 46.0603 93.0575 45.8978 92.8383 45.6892C92.619 45.4806 92.4438 45.2303 92.3229 44.9529C92.202 44.6754 92.1379 44.3766 92.1344 44.074C92.1309 43.7714 92.188 43.4712 92.3024 43.1911C92.4169 42.9109 92.5863 42.6565 92.8006 42.4429C93.015 42.2293 93.2699 42.0608 93.5505 41.9474H93.5469ZM93.5469 59.7022C100.468 56.7338 107.647 54.4088 114.995 52.7565C122.988 50.9394 131.11 49.739 139.288 49.166C139.585 49.145 139.883 49.1828 140.165 49.277C140.448 49.3713 140.709 49.5203 140.934 49.7155C141.159 49.9108 141.343 50.1483 141.476 50.4148C141.609 50.6812 141.688 50.9712 141.709 51.2682C141.73 51.5653 141.693 51.8635 141.598 52.146C141.504 52.4285 141.355 52.6896 141.16 52.9145C140.965 53.1394 140.727 53.3236 140.461 53.4567C140.194 53.5897 139.904 53.669 139.607 53.69C131.662 54.2467 123.772 55.4128 116.005 57.1781C108.933 58.7668 102.022 61.0029 95.3601 63.8582C95.086 63.9864 94.789 64.0585 94.4866 64.0701C94.1842 64.0817 93.8826 64.0326 93.5995 63.9257C93.3164 63.8188 93.0575 63.6562 92.8383 63.4476C92.619 63.2391 92.4438 62.9887 92.3229 62.7113C92.202 62.4339 92.1379 62.135 92.1344 61.8325C92.1309 61.5299 92.188 61.2296 92.3024 60.9495C92.4169 60.6693 92.5863 60.415 92.8006 60.2014C93.015 59.9877 93.2699 59.8193 93.5505 59.7058L93.5469 59.7022ZM93.5469 77.4553C100.468 74.4883 107.648 72.1639 114.995 70.5113C122.988 68.6942 131.11 67.4938 139.288 66.9208C139.879 66.8933 140.458 67.0982 140.901 67.4919C141.344 67.8856 141.615 68.4368 141.657 69.0277C141.698 69.6187 141.507 70.2025 141.124 70.6545C140.741 71.1065 140.197 71.3908 139.607 71.4466C131.662 72.0005 123.772 73.1648 116.005 74.9294C108.933 76.5166 102.022 78.7522 95.3601 81.6076C95.0849 81.7486 94.7839 81.8317 94.4754 81.8519C94.1669 81.8722 93.8576 81.8291 93.5664 81.7253C93.2752 81.6215 93.0083 81.4592 92.7822 81.2484C92.5561 81.0376 92.3755 80.7827 92.2516 80.4995C92.1276 80.2163 92.063 79.9107 92.0616 79.6016C92.0601 79.2924 92.122 78.9863 92.2434 78.702C92.3647 78.4176 92.5429 78.1611 92.7671 77.9483C92.9913 77.7354 93.2567 77.5707 93.5469 77.4642V77.4553ZM92.3746 98.1902C92.2558 97.9175 92.1919 97.6242 92.1865 97.3268C92.1812 97.0295 92.2344 96.734 92.3433 96.4573C92.4522 96.1805 92.6145 95.9279 92.821 95.7139C93.0275 95.4999 93.2742 95.3287 93.5469 95.2101C100.468 92.2417 107.647 89.9167 114.995 88.2643C122.988 86.4472 131.11 85.2469 139.288 84.6739C139.585 84.6529 139.883 84.6906 140.165 84.7849C140.448 84.8792 140.709 85.0282 140.934 85.2234C141.159 85.4186 141.343 85.6562 141.476 85.9226C141.609 86.189 141.688 86.479 141.709 86.7761C141.73 87.0731 141.693 87.3714 141.598 87.6539C141.504 87.9364 141.355 88.1975 141.16 88.4224C140.965 88.6472 140.727 88.8315 140.461 88.9645C140.194 89.0976 139.904 89.1769 139.607 89.1979C131.662 89.7542 123.772 90.9192 116.005 92.6824C108.933 94.2722 102.022 96.5096 95.3601 99.3661C95.0869 99.4851 94.7929 99.5491 94.4949 99.5544C94.1969 99.5597 93.9009 99.5062 93.6236 99.397C93.3463 99.2878 93.0933 99.125 92.879 98.9179C92.6646 98.7109 92.4933 98.4635 92.3746 98.1902ZM78.9104 117.072V16.947C69.8039 11.271 59.8328 7.11795 49.3896 4.65144C37.3379 1.66608 24.9777 0.104928 12.5622 0V100.93C25.353 101.037 38.087 102.646 50.5026 105.723C60.466 108.124 70.0321 111.946 78.9068 117.072H78.9104ZM56.5436 22.4871C57.0566 22.1766 57.672 22.0825 58.2544 22.2256C58.8368 22.3686 59.3385 22.7371 59.6493 23.25L65.2576 32.4793C65.5681 32.9921 65.6621 33.6072 65.519 34.1893C65.3759 34.7714 65.0074 35.2728 64.4947 35.5833L55.2654 41.2006C55.0113 41.3685 54.7258 41.4833 54.4262 41.5381C54.1266 41.593 53.819 41.5867 53.5218 41.5196C53.2247 41.4526 52.9442 41.3262 52.6971 41.148C52.4501 40.9698 52.2416 40.7435 52.0842 40.4827C51.9268 40.222 51.8238 39.9321 51.7813 39.6304C51.7387 39.3288 51.7576 39.0217 51.8368 38.7276C51.9159 38.4335 52.0537 38.1584 52.2418 37.9188C52.43 37.6793 52.6646 37.4802 52.9316 37.3336L60.2256 32.9012L55.7896 25.6018C55.634 25.3479 55.5301 25.0658 55.4839 24.7717C55.4376 24.4776 55.4498 24.1773 55.5199 23.8879C55.5899 23.5985 55.7164 23.3258 55.8921 23.0854C56.0677 22.845 56.2891 22.6417 56.5436 22.4871ZM50.517 15.5377C50.659 15.2767 50.8511 15.0463 51.0822 14.8595C51.3133 14.6728 51.5789 14.5334 51.8639 14.4493C52.1489 14.3652 52.4476 14.338 52.7431 14.3694C53.0386 14.4007 53.325 14.49 53.5859 14.632C53.8469 14.7741 54.0774 14.9661 54.2641 15.1972C54.4509 15.4283 54.5903 15.694 54.6744 15.9789C54.7585 16.2639 54.7856 16.5627 54.7543 16.8581C54.7229 17.1536 54.6337 17.44 54.4916 17.701L40.584 43.0891C40.2969 43.616 39.8122 44.0072 39.2367 44.1767C38.6612 44.3462 38.0419 44.2801 37.515 43.993C36.9882 43.7059 36.597 43.2213 36.4275 42.6458C36.258 42.0702 36.324 41.4509 36.6111 40.9241L50.517 15.5377ZM26.6027 23.0418L35.832 17.4335C36.344 17.1462 36.9477 17.0695 37.5154 17.2195C38.083 17.3695 38.57 17.7345 38.8732 18.2372C39.1765 18.7399 39.2722 19.3409 39.1402 19.9129C39.0082 20.485 38.6587 20.9833 38.1658 21.3022L30.8736 25.7346L35.3078 33.0341C35.4757 33.2882 35.5905 33.5736 35.6454 33.8732C35.7002 34.1729 35.6939 34.4805 35.6269 34.7776C35.5598 35.0747 35.4334 35.3552 35.2552 35.6023C35.077 35.8493 34.8508 36.0578 34.59 36.2152C34.3292 36.3726 34.0393 36.4756 33.7377 36.5182C33.4361 36.5607 33.129 36.5418 32.8348 36.4627C32.5407 36.3835 32.2656 36.2458 32.026 36.0576C31.7865 35.8695 31.5875 35.6349 31.4409 35.3678L25.8326 26.1386C25.5255 25.6254 25.4342 25.0115 25.5785 24.4312C25.7228 23.8509 26.0911 23.3513 26.6027 23.0418ZM20.6461 51.2682C20.6671 50.9712 20.7463 50.6811 20.8794 50.4147C21.0124 50.1483 21.1967 49.9107 21.4216 49.7155C21.6465 49.5202 21.9076 49.3712 22.1901 49.277C22.4726 49.1827 22.7708 49.145 23.0679 49.166C31.2456 49.739 39.3672 50.9394 47.361 52.7565C54.7081 54.4088 61.8876 56.7338 68.8086 59.7022C69.0839 59.8195 69.3332 59.9902 69.5421 60.2043C69.7511 60.4185 69.9156 60.6719 70.026 60.95C70.1365 61.2281 70.1908 61.5253 70.1858 61.8245C70.1808 62.1237 70.1165 62.4189 69.9968 62.6931C69.8771 62.9673 69.7042 63.2151 69.4882 63.4222C69.2721 63.6292 69.0172 63.7914 68.7382 63.8994C68.4591 64.0074 68.1614 64.059 67.8623 64.0513C67.5632 64.0436 67.2686 63.9768 66.9954 63.8546C60.3331 61.0005 53.4222 58.7656 46.3503 57.1781C38.5844 55.4141 30.6945 54.2492 22.7501 53.6936C22.4526 53.6729 22.1621 53.5936 21.8952 53.4605C21.6283 53.3273 21.3903 53.1428 21.1949 52.9175C20.9994 52.6922 20.8504 52.4305 20.7562 52.1475C20.662 51.8645 20.6246 51.5657 20.6461 51.2682ZM20.6461 69.0231C20.6885 68.423 20.9673 67.8642 21.4215 67.4697C21.8756 67.0752 22.4678 66.8771 23.0679 66.919C31.2456 67.492 39.3672 68.6924 47.361 70.5095C54.7084 72.1647 61.8879 74.4928 68.8086 77.4642C69.0988 77.5707 69.3642 77.7354 69.5884 77.9483C69.8126 78.1611 69.9908 78.4176 70.1121 78.702C70.2335 78.9863 70.2953 79.2924 70.2939 79.6016C70.2925 79.9107 70.2279 80.2163 70.1039 80.4995C69.98 80.7827 69.7994 81.0376 69.5733 81.2484C69.3472 81.4592 69.0803 81.6215 68.7891 81.7253C68.4979 81.8291 68.1886 81.8722 67.8801 81.8519C67.5716 81.8317 67.2706 81.7486 66.9954 81.6076C60.3334 78.7523 53.4224 76.5168 46.3503 74.9294C38.5839 73.1645 30.6934 71.9995 22.7483 71.4448C22.1491 71.4025 21.5911 71.1241 21.1969 70.6707C20.8028 70.2173 20.6047 69.626 20.6461 69.0266V69.0231ZM22.7483 89.1979C22.1484 89.1555 21.5899 88.8765 21.1957 88.4224C20.8014 87.9682 20.6038 87.376 20.6461 86.7761C20.6885 86.1762 20.9675 85.6177 21.4216 85.2234C21.8758 84.8292 22.468 84.6315 23.0679 84.6739C31.2456 85.2469 39.3672 86.4472 47.361 88.2643C54.7081 89.9167 61.8876 92.2417 68.8086 95.2101C69.3597 95.4505 69.7927 95.9001 70.0124 96.4598C70.2321 97.0195 70.2204 97.6436 69.98 98.1947C69.7395 98.7458 69.29 99.1788 68.7303 99.3985C68.1706 99.6182 67.5465 99.6065 66.9954 99.3661C60.3332 96.5108 53.4223 94.2747 46.3503 92.686C38.5837 90.9215 30.6933 89.7554 22.7483 89.1979ZM161.963 9.39085V110.317C146.95 110.395 131.984 111.996 117.294 115.096C104.692 117.617 92.5245 121.964 81.1777 128C69.8306 121.967 57.6635 117.622 45.0613 115.103C30.3718 112.001 15.4055 110.397 0.392334 110.317V9.39085C1.74953 9.40162 3.00978 9.42137 4.17309 9.4501C5.43813 9.48241 6.72052 9.5255 8.02027 9.57936V103.186C8.02027 103.789 8.25953 104.366 8.68542 104.792C9.11131 105.218 9.68894 105.457 10.2912 105.457C23.4654 105.397 36.5965 106.964 49.386 110.125C60.1785 112.656 70.4593 117.012 79.7846 123.006C80.1831 123.315 80.6732 123.483 81.1777 123.483C81.6823 123.483 82.1724 123.315 82.5708 123.006C91.8966 117.013 102.177 112.657 112.969 110.125C125.759 106.964 138.89 105.397 152.064 105.457C152.667 105.457 153.244 105.218 153.67 104.792C154.096 104.366 154.335 103.789 154.335 103.186V9.57936C155.633 9.5255 156.915 9.48241 158.182 9.4501C159.346 9.42137 160.606 9.40162 161.963 9.39085Z" fill="currentColor"/>
</svg>
