<svg width="256" height="256" viewBox="0 0 256 256" fill="none" xmlns="http://www.w3.org/2000/svg">
<path fill-rule="evenodd" clip-rule="evenodd" d="M184 35C190 33.9288 197.01 37.7032 204.628 44.4146C203.565 45.3829 202.898 46.774 202.898 48.3199C202.898 51.245 205.284 53.6163 208.228 53.6163C211.171 53.6163 213.557 51.245 213.557 48.3199C213.557 45.3948 211.171 43.0235 208.228 43.0235C207.967 43.0235 207.712 43.042 207.461 43.0779C202.992 32.4022 183.635 17.3168 166.5 22.5C153.238 26.5117 148.869 39.5037 144.99 51.0374C144.308 53.0644 143.642 55.0463 142.945 56.9265C141.341 61.2531 141.155 58.6871 140.762 53.2426C140.012 42.8582 137.876 25.9449 124.958 18.5276C110.755 10.3723 91.6508 16.5415 83.6569 25.8102C80.3512 29.6431 78.4458 33.4052 77.4069 36.5114C77.0588 36.4403 76.6984 36.403 76.3292 36.403C73.386 36.403 71 38.7743 71 41.6994C71 44.6245 73.386 46.9958 76.3292 46.9958C79.2725 46.9958 81.6585 44.6245 81.6585 41.6994C81.6585 40.3773 81.171 39.1683 80.365 38.2403C87.1882 31.4032 97.8494 26.1805 105.64 40.3753C115.233 57.8533 112.746 61.9745 109.637 65.5054C109.525 65.6329 109.44 65.7667 109.381 65.9064C69.0081 61.7826 53.6326 73.0669 58.2407 73.0669C64.0849 73.0669 99.8809 78.1491 97.6893 81.0532C97.0469 81.9044 92.7022 86.5599 86.7517 92.936L86.7511 92.9366C72.3988 108.315 48.706 133.703 45.0911 139.862C42.81 143.748 37.7668 147.201 33.0743 150.414C27.2475 154.404 21.9613 158.023 23.1752 161.642C23.6465 163.047 23.9827 164.855 24.3508 166.835C25.6945 174.062 27.4639 183.579 37.7858 184.149C46.5308 184.632 53.9833 180.298 59.0691 177.341C61.6307 175.851 63.5919 174.711 64.8154 174.711C66.4281 174.711 68.1833 176.551 70.1437 178.606C72.6234 181.205 75.4316 184.149 78.6955 184.149C80.7243 184.149 85.4821 179.512 91.227 173.913C102.031 163.383 116.327 149.45 122.527 156.56C132.024 167.451 140.06 204.315 122.527 229C104.995 253.685 243.722 249.924 231.902 201.362C221.951 160.479 201.263 106.075 167.674 82.6758C174.957 77.0433 174.88 66.5835 174.808 56.8692C174.73 46.3298 174.658 36.6678 184 35ZM117.413 114.275C117.096 110.477 111.229 102.731 101.918 103.498C92.6065 104.265 85.2577 113.745 85.5744 117.543C85.7439 119.574 87.7124 118.784 90.9317 117.493C93.7316 116.369 97.4775 114.867 101.809 114.51C106.013 114.163 109.666 114.856 112.38 115.371C115.677 115.996 117.587 116.358 117.413 114.275Z" fill="#41C092"/>
</svg>
