<svg width="576" height="519" viewBox="0 0 576 519" fill="none" xmlns="http://www.w3.org/2000/svg">
<path d="M277.815 477.889C269.421 470.682 274.317 461.207 277.815 457.37C281.646 454.033 290.706 447.36 296.303 447.36C303.298 447.36 313.791 457.37 326.782 455.868C337.175 454.667 358.428 440.02 367.755 432.846C359.361 430.444 346.602 415.829 341.273 408.823C333.444 410.157 314.091 413.227 299.301 414.829C280.813 416.83 249.834 405.319 228.848 397.812C207.862 390.305 170.386 361.277 163.891 358.274C157.395 355.271 138.408 377.793 129.913 377.793C121.419 377.793 107.428 392.307 102.931 397.812C98.4344 403.317 78.9474 410.825 69.9534 400.815C62.7582 392.807 37.9747 378.126 26.4824 371.787C24.9834 373.789 20.2865 377.793 13.491 377.793C6.69554 377.793 1.66556 366.782 0 361.277C3.16456 356.105 11.992 345.762 21.9854 345.762C34.477 345.762 78.9474 387.802 88.9407 377.793C96.9354 369.785 113.591 356.773 120.919 351.267L82.9447 331.248C78.1146 341.925 67.0553 363.579 61.459 364.78C55.8628 365.981 52.1319 360.943 50.966 358.274C55.463 351.1 64.6569 335.652 65.4564 331.248C66.4557 325.743 69.4537 312.73 75.4497 309.227C80.2465 306.424 89.7735 314.398 93.9374 318.736C104.597 322.906 126.716 330.247 129.913 326.243C133.911 321.238 129.913 272.191 141.905 255.174C153.897 238.158 153.398 202.624 146.902 195.116C140.406 187.609 120.919 214.135 116.922 214.135C112.925 214.135 109.927 207.629 107.428 207.629C104.93 207.629 97.9347 214.635 88.9407 214.135C79.9467 213.634 80.4464 203.124 78.9474 198.62C77.4484 194.116 90.4397 189.611 93.9374 183.605C97.4351 177.6 128.414 145.068 129.913 143.066C131.412 141.064 106.929 137.561 102.931 137.561C98.9341 137.561 116.922 125.049 163.891 137.561C201.466 147.571 220.52 212.8 225.35 244.164C254.331 247.667 314.79 255.275 324.784 257.677C337.275 260.68 398.734 263.182 416.722 273.692C434.71 284.202 445.203 296.715 450.2 304.722C450.2 304.722 464.846 315.831 476.183 321.238C482.705 324.349 487.001 326.14 494.67 328.625C509.66 335.252 568.526 418.815 542.638 398.313C533.438 391.026 519.889 369.232 522.652 379.294C525.415 389.357 525.767 397.141 534.144 404.819C540.48 410.626 546.192 411.289 552.632 414.829C566.773 422.601 581.969 443.197 573.618 446.359C560.799 451.212 535.543 451.364 509.66 432.846C483.778 414.328 498.168 391.54 489.174 379.294C483.222 371.189 482.406 369.925 481.179 360.276C480.863 357.784 482.098 355.883 482.357 353.77C477.538 354.771 479.181 364.28 479.181 366.282C479.181 368.284 486.176 389.304 484.177 391.806C482.179 394.309 474.684 375.29 473.185 373.288C471.686 371.287 474.184 349.265 473.185 347.263C472.185 345.261 469.687 349.265 469.187 368.284C468.688 387.302 465.19 372.287 460.193 362.778C456.196 355.171 460.86 338.922 463.691 331.748C463.691 331.748 454.197 323.739 454.197 328.625C454.197 371.166 424.717 383.799 414.224 400.815C403.731 417.831 414.224 433.847 421.219 441.354C428.215 448.861 430.213 457.37 428.714 465.377C427.215 473.385 393.738 485.897 388.741 488.4C384.744 490.401 368.754 500.912 361.259 505.916C357.095 505.583 348.768 505.816 348.768 509.42C348.768 513.924 334.777 518.429 330.28 518.429C325.783 518.429 321.786 511.922 322.285 500.912C322.685 492.103 330.78 485.23 334.777 482.894L348.768 488.4C358.594 482.227 379.347 468.981 383.744 465.377C389.241 460.873 386.742 452.365 381.246 451.364C375.75 450.363 334.277 477.889 324.784 477.889C315.29 477.889 312.292 471.884 305.297 469.882C298.301 467.88 301.299 471.383 296.303 477.889C291.306 484.396 288.308 486.898 277.815 477.889Z" fill="#5BA68B"/>
<path d="M282.312 378.794C257.528 372.388 218.688 345.428 202.365 332.749L225.35 244.164C274.317 235.155 334.75 242.121 373.751 262.682C402.232 277.696 343.105 317.568 337.775 345.261C335.656 356.272 307.095 385.2 282.312 378.794Z" fill="#B3E6B3"/>
<path d="M372.374 128.004C360.864 132.327 357.716 122.868 341.895 126.502C336.405 127.763 333.4 133.509 322.335 131.853C314.986 130.753 313.414 126.502 307.418 124C296.994 119.649 291.475 125.306 278.437 124C254.453 121.597 242.627 99.9765 238.963 90.9678C238.13 85.963 233.767 77.5549 222.974 83.9611C211.381 90.8418 219.711 106.591 227.357 121.048C228.609 123.416 229.843 125.75 230.968 128.004C237.364 140.816 271.275 155.697 287.431 161.536C284.933 171.045 287.431 190.764 287.431 199.573C287.431 208.796 273.158 214.063 263.946 217.59C262.162 218.273 265.893 216.778 263.946 217.59C256.196 220.825 244.811 234.876 245.459 241.613C245.459 241.613 262.734 239.874 266.445 241.113C276.938 244.616 283.933 253.625 266.445 269.14C244.959 284.154 228.97 333.702 228.47 352.22C227.97 370.738 214.979 384.251 206.984 391.758C200.589 397.764 186.665 394.261 180.502 391.758C175.505 386.086 165.612 376.644 166.012 384.251C166.511 393.76 188.996 415.281 217.977 416.282C246.958 417.283 254.953 368.736 258.45 330.699C266.445 302.672 302.652 283.259 328.163 272.971C334.203 270.535 339.354 268.458 342.894 266.637C361.382 257.128 349.39 227.6 338.897 215.588C326.405 199.573 349.39 171.045 349.39 171.045C349.39 171.045 371.375 154.529 386.865 149.524C401.911 144.663 422.611 121.812 428.337 115.491C428.506 115.305 428.194 115.649 428.337 115.491C429.787 113.966 432.334 107.588 432.334 105.482C432.334 99.9537 423.34 95.6226 418.568 96.2103C412.466 96.9618 402.74 104.325 393.63 111.222C388.622 115.013 381.647 124.521 372.374 128.004Z" fill="#9E31C4"/>
<path fill-rule="evenodd" clip-rule="evenodd" d="M339.979 84.2579C345.523 83.6062 350.028 83.0767 349.895 84.99C348.583 103.774 341.51 125.855 324.585 124.67C307.152 123.449 304.406 99.4815 305.752 80.1981C305.842 78.9103 309.305 80.0467 313.859 81.5408C318.153 82.95 323.418 84.6775 327.738 84.9898C331.462 85.2591 335.99 84.7269 339.979 84.2579ZM325.493 117.357C330.979 117.735 335.41 113.646 335.54 111.762C335.61 110.737 334.186 110.978 331.989 111.35H331.989C330.149 111.662 327.766 112.065 325.265 111.893C322.714 111.717 320.489 110.972 318.826 110.415C316.915 109.775 315.746 109.384 315.676 110.392C315.547 112.276 320.008 116.978 325.493 117.357ZM323.334 94.0318C323.221 92.6599 321.07 89.8657 317.646 90.15C314.221 90.4343 311.512 93.8651 311.626 95.2369C311.687 95.9707 312.411 95.6838 313.596 95.2147C314.626 94.8067 316.004 94.2608 317.597 94.1285C319.143 94.0002 320.486 94.2477 321.483 94.4315C322.695 94.6548 323.397 94.7842 323.334 94.0318ZM337.492 91.7266C334.131 91.0134 331.646 93.5146 331.361 94.8613C331.205 95.5999 331.918 95.5599 333.148 95.4909C334.16 95.4341 335.523 95.3577 337.041 95.6797C338.604 96.0115 339.903 96.7266 340.874 97.2611C341.991 97.8757 342.673 98.2515 342.825 97.5312C343.11 96.1845 340.853 92.4398 337.492 91.7266Z" fill="#E07F00"/>
<path d="M380.869 55.934C356.385 25.905 348.39 70.448 351.888 73.9514C355.386 77.4548 335.399 79.1945 327.404 78.4558C318.307 77.6151 303.087 73.1173 305.419 70.448C307.751 67.7788 309.616 61.6395 302.421 48.4268C295.226 35.214 284.766 44.2561 280.435 50.4287C280.269 48.4268 281.135 43.0216 285.932 37.4162C291.928 30.4094 301.421 27.907 316.911 31.9108C332.401 35.9147 326.905 70.448 330.402 60.9389C333.9 51.4297 340.917 38.5568 352.388 34.9137C372.874 28.4075 379.036 51.4297 380.869 55.934Z" fill="#9E31C4"/>
<ellipse cx="280.435" cy="49.4278" rx="3.99734" ry="4.00386" fill="#E6C51A"/>
<ellipse cx="379.37" cy="54.4326" rx="3.99734" ry="4.00386" fill="#E6C51A"/>
<ellipse cx="334.909" cy="9.0087" rx="8.99401" ry="9.0087" fill="#E6C200"/>
<ellipse cx="211.991" cy="62.0599" rx="13.9907" ry="14.0135" fill="#E6C200"/>
<ellipse cx="439.839" cy="81.0783" rx="13.9907" ry="14.0135" fill="#E6C200"/>
</svg>
